<svg width="22" height="22" viewBox="0 0 22 22" fill="none" xmlns="http://www.w3.org/2000/svg">
<path d="M8.25016 10.0833C10.2752 10.0833 11.9168 8.44171 11.9168 6.41667C11.9168 4.39162 10.2752 2.75 8.25016 2.75C6.22512 2.75 4.5835 4.39162 4.5835 6.41667C4.5835 8.44171 6.22512 10.0833 8.25016 10.0833Z" stroke="black" stroke-linecap="round" stroke-linejoin="round"/>
<path d="M1.8335 19.25V15.5833C1.8335 14.5708 2.65431 13.75 3.66683 13.75H12.8335C13.846 13.75 14.6668 14.5708 14.6668 15.5833V19.25" stroke="black" stroke-linecap="round" stroke-linejoin="round"/>
<path d="M14.6665 2.75C15.4552 2.95194 16.1543 3.41064 16.6535 4.05378C17.1527 4.69693 17.4237 5.48793 17.4237 6.30208C17.4237 7.11624 17.1527 7.90724 16.6535 8.55038C16.1543 9.19352 15.4552 9.65222 14.6665 9.85417" stroke="black" stroke-linecap="round" stroke-linejoin="round"/>
<path d="M17.4165 13.75H18.3332C19.3457 13.75 20.1665 14.5708 20.1665 15.5833V19.25" stroke="black" stroke-linecap="round" stroke-linejoin="round"/>
</svg>
