<svg width="22" height="22" viewBox="0 0 22 22" fill="none" xmlns="http://www.w3.org/2000/svg">
<path d="M14.694 17.0647L19.5468 12.6161C19.6356 12.5348 19.7394 12.4717 19.8525 12.4304C19.9656 12.3892 20.0858 12.3706 20.206 12.3758C20.3263 12.381 20.4444 12.4099 20.5535 12.4607C20.6627 12.5115 20.7607 12.5833 20.8421 12.672C20.9235 12.7608 20.9866 12.8646 21.0278 12.9778C21.069 13.0909 21.0876 13.211 21.0824 13.3313C21.0772 13.4515 21.0484 13.5696 20.9975 13.6787C20.9467 13.7879 20.8749 13.8859 20.7862 13.9673L15.2862 19.009C15.112 19.1686 14.883 19.2549 14.6468 19.2498C14.4106 19.2447 14.1855 19.1485 14.0184 18.9815L11.2684 16.2315C11.1014 16.0586 11.009 15.827 11.0111 15.5867C11.0132 15.3463 11.1096 15.1164 11.2796 14.9465C11.4495 14.7765 11.6795 14.6801 11.9198 14.678C12.1601 14.6759 12.3917 14.7683 12.5646 14.9353L14.694 17.0647ZM0.916504 18.3334C0.918719 16.6915 1.41026 15.0875 2.32836 13.7263C3.24646 12.365 4.54944 11.3083 6.07092 10.6911C5.29253 9.96574 4.79191 8.99127 4.65554 7.93605C4.51916 6.88083 4.75559 5.81112 5.32399 4.91167C5.89239 4.01221 6.75707 3.33951 7.76867 3.00974C8.78027 2.67998 9.87528 2.71386 10.8646 3.10553C11.8539 3.4972 12.6753 4.22207 13.187 5.15493C13.6987 6.0878 13.8686 7.17009 13.6672 8.21486C13.4659 9.25963 12.906 10.2013 12.0842 10.8772C11.2625 11.5531 10.2305 11.9207 9.1665 11.9167C7.62397 11.9186 6.13358 12.4753 4.96748 13.4851C3.80138 14.4948 3.03736 15.8903 2.81492 17.4167H9.1665C9.40962 17.4167 9.64278 17.5133 9.81468 17.6852C9.98659 17.8571 10.0832 18.0903 10.0832 18.3334C10.0832 18.5765 9.98659 18.8097 9.81468 18.9816C9.64278 19.1535 9.40962 19.25 9.1665 19.25H1.83317C1.59006 19.25 1.3569 19.1535 1.18499 18.9816C1.01308 18.8097 0.916504 18.5765 0.916504 18.3334ZM6.4165 7.33338C6.4165 7.87728 6.57779 8.40896 6.87996 8.8612C7.18214 9.31343 7.61163 9.66591 8.11412 9.87405C8.61662 10.0822 9.16955 10.1367 9.703 10.0305C10.2364 9.92443 10.7265 9.66252 11.111 9.27792C11.4956 8.89333 11.7576 8.40333 11.8637 7.86988C11.9698 7.33643 11.9153 6.7835 11.7072 6.281C11.499 5.7785 11.1466 5.34901 10.6943 5.04684C10.2421 4.74466 9.7104 4.58338 9.1665 4.58338C8.43716 4.58338 7.73768 4.87311 7.22196 5.38884C6.70623 5.90456 6.4165 6.60403 6.4165 7.33338Z" fill="black"/>
</svg>
