<svg width="22" height="22" viewBox="0 0 22 22" fill="none" xmlns="http://www.w3.org/2000/svg">
<path d="M11 10.9999C11 10.4936 11.4104 10.0833 11.9167 10.0833H17.4167C17.9229 10.0833 18.3333 10.4936 18.3333 10.9999V17.4166C18.3333 17.9229 17.9229 18.3333 17.4167 18.3333H11.9167C11.4104 18.3333 11 17.9229 11 17.4166V10.9999Z" stroke="black" stroke-linecap="round"/>
<path d="M3.6665 4.58341C3.6665 4.07716 4.07691 3.66675 4.58317 3.66675H7.33317C7.83943 3.66675 8.24984 4.07716 8.24984 4.58341V17.4168C8.24984 17.923 7.83943 18.3334 7.33317 18.3334H4.58317C4.07691 18.3334 3.6665 17.923 3.6665 17.4168V4.58341Z" stroke="black" stroke-linecap="round"/>
<path d="M11 4.58341C11 4.07716 11.4104 3.66675 11.9167 3.66675H17.4167C17.9229 3.66675 18.3333 4.07716 18.3333 4.58341V6.41675C18.3333 6.92301 17.9229 7.33342 17.4167 7.33342H11.9167C11.4104 7.33342 11 6.92301 11 6.41675V4.58341Z" stroke="black" stroke-linecap="round"/>
</svg>
