<svg width="14" height="14" viewBox="0 0 14 14" fill="none" xmlns="http://www.w3.org/2000/svg">
<path d="M11.8125 2.625H9.1875V2.1875C9.1875 1.22456 8.40263 0.875 7.875 0.875H6.125C5.16206 0.875 4.8125 1.65988 4.8125 2.1875V2.625H2.1875C1.94687 2.625 1.75 2.82187 1.75 3.0625C1.75 3.30312 1.94687 3.5 2.1875 3.5H11.8125C12.0531 3.5 12.25 3.30312 12.25 3.0625C12.25 2.82187 12.0531 2.625 11.8125 2.625ZM8.3125 2.625H5.68138L5.6875 2.19275C5.69275 1.99063 5.77238 1.75 6.125 1.75H7.86975C8.07188 1.75525 8.3125 1.83531 8.3125 2.1875V2.625ZM2.97938 12.2539C3.02531 12.733 3.45625 13.125 3.9375 13.125H10.0625C10.5437 13.125 10.9747 12.733 11.0206 12.2539L11.8125 3.9375H2.1875L2.97938 12.2539ZM9.18881 5.65381C9.20719 5.41319 9.41281 5.23425 9.65869 5.25131C9.89931 5.26969 10.0796 5.48012 10.0612 5.72119L9.62369 11.4087C9.60619 11.6379 9.41456 11.8125 9.18794 11.8125C9.177 11.8125 9.16519 11.8121 9.15381 11.8112C8.91319 11.7928 8.73294 11.5824 8.75131 11.3413L9.18881 5.65381ZM6.5625 5.6875C6.5625 5.446 6.75806 5.25 7 5.25C7.24194 5.25 7.4375 5.446 7.4375 5.6875V11.375C7.4375 11.6165 7.24194 11.8125 7 11.8125C6.75806 11.8125 6.5625 11.6165 6.5625 11.375V5.6875ZM4.34131 5.25131C4.58894 5.23469 4.79281 5.41319 4.81119 5.65381L5.24869 11.3413C5.26706 11.5824 5.08681 11.7924 4.84619 11.8112C4.83481 11.8121 4.823 11.8125 4.81206 11.8125C4.58544 11.8125 4.39381 11.6379 4.37631 11.4087L3.93881 5.72119C3.92044 5.48012 4.10069 5.26969 4.34131 5.25131Z" fill="black"/>
</svg>
