<svg width="18" height="18" viewBox="0 0 18 18" fill="none" xmlns="http://www.w3.org/2000/svg">
<path d="M2.89392 2.33081C2.04079 2.33081 1.34473 3.02716 1.34473 3.88029V10.0116V10.5425V13.4755C1.34473 14.686 2.3291 15.6692 3.53956 15.6692H13.3562H15.6598C15.773 15.6692 15.8816 15.649 15.9832 15.6134C16.2108 15.5968 16.3871 15.442 16.4905 15.2689C16.5587 15.1548 16.6033 15.0244 16.6291 14.8849C16.6316 14.8736 16.6333 14.862 16.6354 14.8505C16.6389 14.8283 16.6432 14.8065 16.6456 14.7839C16.6492 14.752 16.651 14.7195 16.6513 14.6868C16.6514 14.683 16.6519 14.6796 16.6519 14.676C16.6525 14.6583 16.655 14.6413 16.655 14.6233V7.34139H16.6519V4.43857C16.6519 3.90753 16.2268 3.47063 15.7008 3.44876C15.513 2.80456 14.9173 2.33085 14.214 2.33085L2.89392 2.33081ZM2.89392 2.91411H14.214C14.7542 2.91411 15.1802 3.34007 15.1802 3.88029V10.0116V10.5425V13.4755H15.1833V14.6233C15.1833 14.7892 15.211 14.9446 15.2627 15.0859H8.34998V15.0862H3.53956C2.642 15.0862 1.92774 14.3731 1.92774 13.4755V10.5425V10.0116V3.88029C1.92774 3.34007 2.3537 2.91411 2.89392 2.91411ZM3.3178 3.86947C3.08571 3.86947 2.89904 4.18222 2.89904 4.57062V7.50561C2.89904 7.89401 3.08571 8.20676 3.3178 8.20676H6.88988C7.12197 8.20676 7.30892 7.89401 7.30892 7.50561V4.57062C7.30892 4.18222 7.12197 3.86947 6.88988 3.86947H3.3178ZM9.40925 3.86947C9.17716 3.86947 8.99049 4.06364 8.99049 4.30474C8.99049 4.54583 9.17716 4.73972 9.40925 4.73972H13.8502C14.0822 4.73972 14.2692 4.54583 14.2692 4.30474C14.2692 4.06364 14.0822 3.86947 13.8502 3.86947H9.40925ZM15.7632 4.04226C15.9421 4.08656 16.0689 4.24272 16.0689 4.43853V14.672C16.0688 14.6758 16.0683 14.6801 16.0681 14.6842C16.0678 14.7048 16.0655 14.7247 16.0624 14.7443C16.0608 14.7547 16.0586 14.7642 16.0567 14.7742C16.0324 14.8787 15.9707 14.9657 15.8844 15.021C15.8757 15.012 15.8633 14.9967 15.8471 14.9698C15.8051 14.8993 15.7654 14.7708 15.7654 14.6233V7.34137H15.7632L15.7632 4.04226ZM9.40925 5.60285C9.17716 5.60285 8.99049 5.79702 8.99049 6.03811C8.99049 6.27921 9.17716 6.47338 9.40925 6.47338H13.8502C14.0822 6.47338 14.2692 6.27921 14.2692 6.03811C14.2692 5.79702 14.0822 5.60285 13.8502 5.60285H9.40925ZM9.40925 7.33622C9.17716 7.33622 8.99049 7.5304 8.99049 7.77149C8.99049 8.01258 9.17716 8.20676 9.40925 8.20676H13.8502C14.0822 8.20676 14.2692 8.01258 14.2692 7.77149C14.2692 7.5304 14.0822 7.33622 13.8502 7.33622H9.40925ZM3.32549 9.57831C3.08929 9.57831 2.89904 9.7722 2.89904 10.0133C2.89904 10.2544 3.08929 10.4486 3.32549 10.4486H13.8428C14.079 10.4486 14.2692 10.2544 14.2692 10.0133C14.2692 9.7722 14.079 9.57831 13.8428 9.57831H3.32549ZM3.33431 11.4779C3.09322 11.4779 2.89904 11.6718 2.89904 11.9129C2.89904 12.154 3.09322 12.3482 3.33431 12.3482H6.87366C7.11475 12.3482 7.30864 12.154 7.30864 11.9129C7.30864 11.6718 7.11475 11.4779 6.87366 11.4779H3.33431ZM9.40925 11.4779C9.17716 11.4779 8.99049 11.6718 8.99049 11.9129C8.99049 12.154 9.17716 12.3482 9.40925 12.3482H13.8502C14.0822 12.3482 14.2692 12.154 14.2692 11.9129C14.2692 11.6718 14.0822 11.4779 13.8502 11.4779H9.40925ZM3.33431 13.3773C3.09322 13.3773 2.89904 13.5715 2.89904 13.8125C2.89904 14.0536 3.09322 14.2478 3.33431 14.2478H6.87366C7.11475 14.2478 7.30864 14.0536 7.30864 13.8125C7.30864 13.5715 7.11475 13.3773 6.87366 13.3773H3.33431ZM9.40925 13.3773C9.17716 13.3773 8.99049 13.5715 8.99049 13.8125C8.99049 14.0536 9.17716 14.2478 9.40925 14.2478H13.8502C14.0822 14.2478 14.2692 14.0536 14.2692 13.8125C14.2692 13.5715 14.0822 13.3773 13.8502 13.3773H9.40925Z" fill="black"/>
</svg>
