<svg width="14" height="14" viewBox="0 0 14 14" fill="none" xmlns="http://www.w3.org/2000/svg">
<path d="M2.3335 11.6666H11.6668M2.3335 11.6666V9.33323L7.00016 4.66657M2.3335 11.6666H4.66683L9.3335 6.99989M7.00016 4.66657L8.67351 2.99319L8.67456 2.9922C8.90486 2.76185 9.02025 2.64647 9.15325 2.60326C9.27044 2.56519 9.39661 2.56519 9.5138 2.60326C9.64669 2.64644 9.76195 2.76169 9.99196 2.99171L11.0068 4.00659C11.2378 4.2376 11.3534 4.35316 11.3967 4.48635C11.4348 4.60351 11.4347 4.72971 11.3967 4.84687C11.3535 4.97996 11.2381 5.09535 11.0074 5.32603L11.0068 5.32652L9.3335 6.99989M7.00016 4.66657L9.3335 6.99989" stroke="black" stroke-linecap="round" stroke-linejoin="round"/>
</svg>
