<svg width="22" height="22" viewBox="0 0 22 22" fill="none" xmlns="http://www.w3.org/2000/svg">
<path fill-rule="evenodd" clip-rule="evenodd" d="M10.3127 1.83325C10.3127 1.45356 10.6205 1.14575 11.0002 1.14575C16.4425 1.14575 20.8543 5.55761 20.8543 10.9999C20.8543 16.4423 16.4425 20.8541 11.0002 20.8541C5.55786 20.8541 1.146 16.4423 1.146 10.9999C1.146 10.6202 1.4538 10.3124 1.8335 10.3124C2.21319 10.3124 2.521 10.6202 2.521 10.9999C2.521 15.6828 6.31725 19.4791 11.0002 19.4791C15.683 19.4791 19.4793 15.6828 19.4793 10.9999C19.4793 6.31701 15.683 2.52075 11.0002 2.52075C10.6205 2.52075 10.3127 2.21294 10.3127 1.83325ZM11.0002 7.56242C11.3798 7.56242 11.6877 7.87022 11.6877 8.24992V11.2291H14.6668C15.0465 11.2291 15.3543 11.5369 15.3543 11.9166C15.3543 12.2963 15.0465 12.6041 14.6668 12.6041H11.0002C10.6205 12.6041 10.3127 12.2963 10.3127 11.9166V8.24992C10.3127 7.87022 10.6205 7.56242 11.0002 7.56242Z" fill="black"/>
<path fill-rule="evenodd" clip-rule="evenodd" d="M8.34145 2.19767C8.47818 2.55189 8.30188 2.94989 7.94766 3.08663C7.81801 3.13668 7.6899 3.18982 7.56341 3.24597C7.21636 3.40004 6.81014 3.24361 6.65609 2.89657C6.50202 2.54953 6.65845 2.14331 7.00549 1.98925C7.15262 1.92394 7.30166 1.86211 7.45249 1.80388C7.80672 1.66714 8.20471 1.84345 8.34145 2.19767ZM5.17723 3.88683C5.43909 4.16179 5.42847 4.59696 5.15352 4.85882C5.05298 4.95457 4.9548 5.05274 4.85906 5.15327C4.59721 5.42823 4.16203 5.43885 3.88708 5.17699C3.61212 4.91513 3.60151 4.47996 3.86336 4.20501C3.97453 4.08829 4.08852 3.97428 4.20525 3.86312C4.48021 3.60126 4.91537 3.61188 5.17723 3.88683ZM2.89681 6.65584C3.24385 6.80991 3.40028 7.21613 3.24622 7.56316C3.19006 7.68965 3.13692 7.81776 3.08687 7.94742C2.95013 8.30164 2.55213 8.47794 2.19792 8.34121C1.8437 8.20447 1.66739 7.80647 1.80413 7.45225C1.86235 7.30142 1.92418 7.15237 1.98949 7.00525C2.14356 6.65821 2.54978 6.50178 2.89681 6.65584Z" fill="black"/>
</svg>
