<svg width="61" height="60" viewBox="0 0 61 60" fill="none" xmlns="http://www.w3.org/2000/svg">
<path d="M36.1617 39.8443L31.8683 35.5865C29.895 33.6298 28.9083 32.6513 27.7723 32.2843C26.773 31.9613 25.6975 31.9613 24.6981 32.2843C23.5621 32.6513 22.5754 33.6298 20.6021 35.5865L10.6048 45.6555M36.1617 39.8443L37.015 38.9978C39.03 36.9998 40.0372 36.0008 41.1932 35.6363C42.2097 35.3155 43.302 35.328 44.311 35.672C45.458 36.0632 46.4422 37.085 48.4105 39.1287L50.5 41.2502M36.1617 39.8443L46.05 49.907M10.6048 45.6555C10.6816 46.3065 10.8146 46.8178 11.045 47.27C11.5243 48.2108 12.2893 48.9757 13.2301 49.455C14.2996 50 15.6997 50 18.5 50H42.5C44.0532 50 45.1757 50 46.05 49.907M10.6048 45.6555C10.5 44.7665 10.5 43.6165 10.5 42V18C10.5 15.1997 10.5 13.7996 11.045 12.7301C11.5243 11.7892 12.2893 11.0243 13.2301 10.545C14.2996 10 15.6997 10 18.5 10H28M46.05 49.907C46.7517 49.8322 47.2938 49.6977 47.77 49.455C48.7108 48.9757 49.4757 48.2108 49.955 47.27C50.5 46.2005 50.5 44.8002 50.5 42V32.5M45.5 22.5V15M45.5 15V7.5M45.5 15H53M45.5 15H38" stroke="black" stroke-opacity="0.75" stroke-width="3" stroke-linecap="round" stroke-linejoin="round"/>
</svg>
