<svg width="22" height="22" viewBox="0 0 22 22" fill="none" xmlns="http://www.w3.org/2000/svg">
<g clip-path="url(#clip0_131_7112)">
<path d="M11.6875 13.75H10.3125V16.5H11.6875V13.75Z" fill="black"/>
<path d="M15.125 12.375H13.75V16.5H15.125V12.375Z" fill="black"/>
<path d="M8.25 9.625H6.875V16.5H8.25V9.625Z" fill="black"/>
<path d="M17.1875 3.4375H15.125V2.75C15.125 2.38533 14.9801 2.03559 14.7223 1.77773C14.4644 1.51987 14.1147 1.375 13.75 1.375H8.25C7.88533 1.375 7.53559 1.51987 7.27773 1.77773C7.01987 2.03559 6.875 2.38533 6.875 2.75V3.4375H4.8125C4.44783 3.4375 4.09809 3.58237 3.84023 3.84023C3.58237 4.09809 3.4375 4.44783 3.4375 4.8125V19.25C3.4375 19.6147 3.58237 19.9644 3.84023 20.2223C4.09809 20.4801 4.44783 20.625 4.8125 20.625H17.1875C17.5522 20.625 17.9019 20.4801 18.1598 20.2223C18.4176 19.9644 18.5625 19.6147 18.5625 19.25V4.8125C18.5625 4.44783 18.4176 4.09809 18.1598 3.84023C17.9019 3.58237 17.5522 3.4375 17.1875 3.4375ZM8.25 2.75H13.75V5.5H8.25V2.75ZM17.1875 19.25H4.8125V4.8125H6.875V6.875H15.125V4.8125H17.1875V19.25Z" fill="black"/>
</g>
<defs>
<clipPath id="clip0_131_7112">
<rect width="22" height="22" fill="white"/>
</clipPath>
</defs>
</svg>
