<svg width="22" height="22" viewBox="0 0 22 22" fill="none" xmlns="http://www.w3.org/2000/svg">
<path d="M13.6335 17.823C13.6335 18.101 13.5624 18.3764 13.4242 18.6333C13.286 18.8903 13.0835 19.1237 12.8282 19.3204C12.5728 19.517 12.2697 19.6729 11.9361 19.7793C11.6025 19.8858 11.2449 19.9406 10.8839 19.9406C10.5228 19.9406 10.1653 19.8858 9.83161 19.7793C9.49804 19.6729 9.1949 19.517 8.93961 19.3204C8.6843 19.1237 8.48176 18.8903 8.34358 18.6333C8.20539 18.3764 8.13428 18.101 8.13428 17.823" stroke="black" stroke-linecap="round"/>
<path d="M17.9802 12.0905L18.2227 12.6137C19.1481 14.6092 17.943 16.9417 15.78 17.3414L15.6332 17.3685C12.4936 17.9489 9.27414 17.9489 6.13454 17.3685C3.95387 16.9655 2.8002 14.5529 3.85543 12.6025L4.06297 12.2189C4.62963 11.1715 4.92637 9.99937 4.92637 8.80855V7.59737C4.92637 5.5589 6.08013 3.69604 7.90512 2.78785C9.78821 1.85076 11.9948 1.81889 13.9041 2.70119L14.0918 2.78785C16.0475 3.69157 17.2996 5.64956 17.2996 7.80399V9.0054C17.2996 10.071 17.5318 11.1238 17.9802 12.0905Z" stroke="black"/>
</svg>
