<svg width="14" height="14" viewBox="0 0 14 14" fill="none" xmlns="http://www.w3.org/2000/svg">
<path d="M3.28125 8.74986C3.28125 8.50824 3.08537 8.31236 2.84375 8.31236C2.60213 8.31236 2.40625 8.50824 2.40625 8.74986H3.28125ZM11.2437 8.74986C11.2437 8.50824 11.0479 8.31236 10.8062 8.31236C10.5646 8.31236 10.3687 8.50824 10.3687 8.74986H11.2437ZM7.16998 3.1856C7.31856 2.99508 7.28461 2.72016 7.09409 2.57155C6.90357 2.42295 6.62865 2.45693 6.48002 2.64745L7.16998 3.1856ZM4.20503 5.56412C4.05642 5.75463 4.0904 6.02954 4.28093 6.17817C4.47144 6.32675 4.74636 6.2928 4.89497 6.10228L4.20503 5.56412ZM7.16998 2.64745C7.02135 2.45693 6.74642 2.42295 6.55591 2.57155C6.36539 2.72016 6.33144 2.99508 6.48002 3.1856L7.16998 2.64745ZM8.75502 6.10228C8.90365 6.2928 9.17858 6.32675 9.36909 6.17817C9.55961 6.02954 9.59356 5.75463 9.44498 5.56412L8.75502 6.10228ZM7.2625 2.91652C7.2625 2.6749 7.06662 2.47902 6.825 2.47902C6.58338 2.47902 6.3875 2.6749 6.3875 2.91652H7.2625ZM6.3875 9.33319C6.3875 9.57481 6.58338 9.77069 6.825 9.77069C7.06662 9.77069 7.2625 9.57481 7.2625 9.33319H6.3875ZM2.40625 8.74986V9.33319H3.28125V8.74986H2.40625ZM2.40625 9.33319C2.40625 10.5308 3.35567 11.5207 4.55 11.5207V10.6457C3.85967 10.6457 3.28125 10.0686 3.28125 9.33319H2.40625ZM4.55 11.5207H9.1V10.6457H4.55V11.5207ZM9.1 11.5207C10.2943 11.5207 11.2437 10.5308 11.2437 9.33319H10.3687C10.3687 10.0686 9.79032 10.6457 9.1 10.6457V11.5207ZM11.2437 9.33319V8.74986H10.3687V9.33319H11.2437ZM6.48002 2.64745L4.20503 5.56412L4.89497 6.10228L7.16998 3.1856L6.48002 2.64745ZM6.48002 3.1856L8.75502 6.10228L9.44498 5.56412L7.16998 2.64745L6.48002 3.1856ZM6.3875 2.91652V9.33319H7.2625V2.91652H6.3875Z" fill="black"/>
</svg>
