<svg width="14" height="14" viewBox="0 0 14 14" fill="none" xmlns="http://www.w3.org/2000/svg">
<path fill-rule="evenodd" clip-rule="evenodd" d="M4.53026 2.00339C4.71251 2.18563 4.71251 2.48111 4.53026 2.66335L3.46025 3.73337H8.40028C10.7199 3.73337 12.6003 5.61377 12.6003 7.93337C12.6003 10.253 10.7199 12.1334 8.40028 12.1334H4.66695C4.40921 12.1334 4.20028 11.9244 4.20028 11.6667C4.20028 11.409 4.40921 11.2 4.66695 11.2H8.40028C10.2044 11.2 11.6669 9.7375 11.6669 7.93337C11.6669 6.12923 10.2044 4.6667 8.40028 4.6667H3.46025L4.53026 5.73672C4.71251 5.91896 4.71251 6.21444 4.53026 6.39668C4.34802 6.57893 4.05254 6.57893 3.8703 6.39668L2.00363 4.53001C1.82138 4.34777 1.82138 4.0523 2.00363 3.87005L3.8703 2.00339C4.05254 1.82114 4.34802 1.82114 4.53026 2.00339Z" fill="black"/>
</svg>
