<svg width="14" height="14" viewBox="0 0 14 14" fill="none" xmlns="http://www.w3.org/2000/svg">
<path d="M8.176 1.95508V3.99208H9.24262L7.10981 6.56239L4.977 3.99208H6.09831V1.95508H8.17644H8.176ZM9.98069 5.24989L11.2249 7.21864C11.2932 7.3827 11.3754 7.69727 11.3754 7.88845V11.6755C11.3754 11.8806 11.2114 12.0311 11.0197 12.0311H3.213C3.00781 12.0311 2.84375 11.8806 2.84375 11.6755V7.88845C2.84375 7.69683 2.912 7.3827 2.98069 7.21864L4.22494 5.24989C4.29319 5.07227 4.5395 4.92177 4.71712 4.92177H5.27756L5.852 5.61914H4.70356L3.59625 7.64258C3.58269 7.64258 3.58269 7.65614 3.58269 7.67014C3.58269 7.6977 3.58269 7.71126 3.56912 7.72483H10.6374V7.67014C10.6374 7.65658 10.6238 7.64258 10.6238 7.62901L9.5165 5.61914H8.36806L8.9425 4.92177H9.48937C9.681 4.92177 9.91331 5.07227 9.98156 5.24989H9.98069ZM6.11144 9.20095H8.12131C8.29894 9.20095 8.463 9.03689 8.463 8.84526C8.463 8.66764 8.29894 8.50358 8.12131 8.50358H6.11144C5.91981 8.50358 5.75575 8.66764 5.75575 8.84526C5.75575 9.03689 5.91981 9.20095 6.11144 9.20095Z" fill="black"/>
</svg>
