<svg width="14" height="14" viewBox="0 0 14 14" fill="none" xmlns="http://www.w3.org/2000/svg">
<g clip-path="url(#clip0_509_2063)">
<path fill-rule="evenodd" clip-rule="evenodd" d="M10.6 0.583252C10.9094 0.583252 11.2062 0.706166 11.425 0.924963L13.0749 2.57487C13.2937 2.79367 13.4166 3.09041 13.4166 3.39984V11.6666C13.4166 12.6331 12.6331 13.4166 11.6666 13.4166H2.33325C1.36676 13.4166 0.583252 12.6331 0.583252 11.6666V2.33325C0.583252 1.36676 1.36676 0.583252 2.33325 0.583252H10.6ZM2.33325 1.74992C2.01109 1.74992 1.74992 2.01109 1.74992 2.33325V11.6666C1.74992 11.9888 2.01109 12.2499 2.33325 12.2499H2.91658V8.74992C2.91658 7.78339 3.70009 6.99992 4.66658 6.99992H9.33325C10.2998 6.99992 11.0833 7.78339 11.0833 8.74992V12.2499H11.6666C11.9888 12.2499 12.2499 11.9888 12.2499 11.6666V3.98317C12.2499 3.67375 12.127 3.377 11.9082 3.15821L10.8416 2.09163C10.6228 1.87283 10.3261 1.74992 10.0167 1.74992H9.91658V2.91658C9.91658 3.88308 9.13311 4.66658 8.16658 4.66658H5.83325C4.86676 4.66658 4.08325 3.88308 4.08325 2.91658V1.74992H2.33325ZM9.91658 12.2499V8.74992C9.91658 8.42774 9.65543 8.16658 9.33325 8.16658H4.66658C4.34442 8.16658 4.08325 8.42774 4.08325 8.74992V12.2499H9.91658ZM5.24992 1.74992H8.74992V2.91658C8.74992 3.23875 8.48876 3.49992 8.16658 3.49992H5.83325C5.51109 3.49992 5.24992 3.23875 5.24992 2.91658V1.74992Z" fill="black"/>
</g>
<defs>
<clipPath id="clip0_509_2063">
<rect width="14" height="14" fill="white"/>
</clipPath>
</defs>
</svg>
