<svg width="14" height="14" viewBox="0 0 14 14" fill="none" xmlns="http://www.w3.org/2000/svg">
<path d="M2.95752 4.66669C3.47093 3.77651 4.26382 3.08069 5.21313 2.6872C6.16244 2.29372 7.21509 2.22458 8.20771 2.49052C9.20033 2.75646 10.0774 3.34261 10.7028 4.15799C11.3283 4.97337 11.6671 5.9724 11.6667 7.00003" stroke="black" stroke-linecap="round" stroke-linejoin="round"/>
<path d="M11.0424 9.33333C10.529 10.2235 9.73612 10.9193 8.78681 11.3128C7.8375 11.7063 6.78485 11.7754 5.79223 11.5095C4.79961 11.2436 3.92253 10.6574 3.29709 9.84204C2.67166 9.02665 2.33285 8.02763 2.33325 7" stroke="black" stroke-linecap="round" stroke-linejoin="round"/>
<path d="M2.91675 1.75V4.66667H5.83341" stroke="black" stroke-linecap="round" stroke-linejoin="round"/>
<path d="M11.0834 12.2499V9.33325H8.16675" stroke="black" stroke-linecap="round" stroke-linejoin="round"/>
</svg>
