<svg width="22" height="22" viewBox="0 0 22 22" fill="none" xmlns="http://www.w3.org/2000/svg">
<path d="M11.9168 2.75H7.51683C6.49007 2.75 5.97668 2.75 5.58451 2.94982C5.23955 3.12559 4.95908 3.40605 4.78332 3.75102C4.5835 4.14319 4.5835 4.65657 4.5835 5.68333V16.3167C4.5835 17.3434 4.5835 17.8569 4.78332 18.249C4.95908 18.5939 5.23955 18.8744 5.58451 19.0502C5.97668 19.25 6.49007 19.25 7.51683 19.25H11.0002M11.9168 2.75L17.4168 8.25M11.9168 2.75V6.78333C11.9168 7.29671 11.9168 7.55341 12.0167 7.74949C12.1047 7.92197 12.2448 8.0622 12.4173 8.15009C12.6134 8.25 12.8701 8.25 13.3835 8.25H17.4168M17.4168 8.25V11M15.5835 17.4167H19.2502M17.4168 15.5833V19.25" stroke="black" stroke-linecap="round" stroke-linejoin="round"/>
</svg>
