<svg width="80" height="80" viewBox="0 0 80 80" fill="none" xmlns="http://www.w3.org/2000/svg">
<path d="M47.549 53.1257L41.8244 47.4487C39.1934 44.8397 37.8777 43.535 36.363 43.0457C35.0307 42.615 33.5967 42.615 32.2641 43.0457C30.7495 43.535 29.4339 44.8397 26.8028 47.4487L13.4731 60.874M47.549 53.1257L48.6867 51.997C51.3734 49.333 52.7164 48.001 54.2577 47.515C55.613 47.0873 57.0694 47.104 58.4147 47.5627C59.944 48.0843 61.2564 49.4467 63.8807 52.1717L66.6667 55.0003M47.549 53.1257L60.7334 66.5427M13.4731 60.874C13.5755 61.742 13.7528 62.4237 14.06 63.0267C14.6991 64.281 15.719 65.301 16.9734 65.94C18.3995 66.6667 20.2663 66.6667 24 66.6667H56C58.071 66.6667 59.5677 66.6667 60.7334 66.5427M13.4731 60.874C13.3334 59.6887 13.3334 58.1553 13.3334 56V24C13.3334 20.2663 13.3334 18.3995 14.06 16.9734C14.6991 15.719 15.719 14.6991 16.9734 14.06C18.3995 13.3333 20.2663 13.3333 24 13.3333H36.6667M60.7334 66.5427C61.669 66.443 62.3917 66.2637 63.0267 65.94C64.281 65.301 65.301 64.281 65.94 63.0267C66.6667 61.6007 66.6667 59.7337 66.6667 56V43.3333M60 30V20M60 20V10M60 20H70M60 20H50" stroke="black" stroke-width="3" stroke-linecap="round" stroke-linejoin="round"/>
</svg>
