<svg width="22" height="22" viewBox="0 0 22 22" fill="none" xmlns="http://www.w3.org/2000/svg">
<g clip-path="url(#clip0_131_7115)">
<path d="M12.2523 1.33129L12.2514 1.33214C12.2113 1.36668 12.1875 1.41803 12.1875 1.47267V8.25005C12.1875 8.66477 12.3521 9.06195 12.6451 9.35437L12.6457 9.355C12.9381 9.64793 13.3353 9.81255 13.75 9.81255H20.5274C20.582 9.81255 20.6334 9.78871 20.6679 9.74868L20.6688 9.7477C20.7046 9.70639 20.7206 9.65165 20.713 9.59829L12.2523 1.33129ZM12.2523 1.33129C12.2937 1.29541 12.3485 1.27939 12.4019 1.28702M12.2523 1.33129L12.4019 1.28702M12.4019 1.28702C16.6961 1.90254 20.0982 5.30473 20.713 9.59813L12.4019 1.28702ZM9.74765 1.33129L9.74864 1.33214C9.78866 1.36668 9.8125 1.41803 9.8125 1.47267V8.25005C9.8125 9.29431 10.2275 10.2959 10.9653 11.0344L10.9656 11.0348C11.7042 11.7725 12.7057 12.1875 13.75 12.1875H20.5274C20.582 12.1875 20.6334 12.2114 20.6679 12.2514L20.6688 12.2524C20.7046 12.2937 20.7206 12.3484 20.7131 12.4017C20.0315 17.1546 15.9389 20.8125 11 20.8125C5.58433 20.8125 1.1875 16.4157 1.1875 11C1.1875 6.06129 4.84533 1.96874 9.59809 1.28702C9.65149 1.27939 9.70629 1.29541 9.74765 1.33129Z" stroke="black"/>
</g>
<defs>
<clipPath id="clip0_131_7115">
<rect width="22" height="22" fill="white"/>
</clipPath>
</defs>
</svg>
